<?xml version="1.0" encoding="UTF-8" standalone="no"?>
<svg
   xmlns:dc="http://purl.org/dc/elements/1.1/"
   xmlns:cc="http://creativecommons.org/ns#"
   xmlns:rdf="http://www.w3.org/1999/02/22-rdf-syntax-ns#"
   xmlns:svg="http://www.w3.org/2000/svg"
   xmlns="http://www.w3.org/2000/svg"
   xmlns:sodipodi="http://sodipodi.sourceforge.net/DTD/sodipodi-0.dtd"
   xmlns:inkscape="http://www.inkscape.org/namespaces/inkscape"
   width="145.18279mm"
   height="50.194172mm"
   viewBox="0 0 145.18279 50.194172"
   version="1.1"
   id="svg1515"
   inkscape:version="1.0.1 (1.0.1+r73)"
   sodipodi:docname="logo-vektorisiert.svg">
  <defs
     id="defs1509">
    <rect
       x="207.07698"
       y="-104.0198"
       width="0.00026054974"
       height="78.057884"
       id="rect869" />
    <rect
       x="207.82686"
       y="-204.675"
       width="48.129902"
       height="17.317753"
       id="rect875" />
    <rect
       x="427.02396"
       y="-208.06448"
       width="41.082626"
       height="87.371071"
       id="rect881" />
    <rect
       x="379.19458"
       y="-284.69516"
       width="5.9338713"
       height="38.575985"
       id="rect887" />
    <rect
       x="274.1062"
       y="-299.40659"
       width="60.979378"
       height="12.459749"
       id="rect893" />
  </defs>
  <sodipodi:namedview
     id="base"
     pagecolor="#ffffff"
     bordercolor="#666666"
     borderopacity="1.0"
     inkscape:pageopacity="0.0"
     inkscape:pageshadow="2"
     inkscape:zoom="0.35"
     inkscape:cx="218.93913"
     inkscape:cy="242.84829"
     inkscape:document-units="mm"
     inkscape:current-layer="layer1"
     inkscape:document-rotation="0"
     showgrid="false"
     inkscape:window-width="3784"
     inkscape:window-height="2105"
     inkscape:window-x="56"
     inkscape:window-y="27"
     inkscape:window-maximized="1"
     showborder="true"
     fit-margin-top="0"
     fit-margin-left="0"
     fit-margin-right="0"
     fit-margin-bottom="0" />
  <metadata
     id="metadata1512">
    <rdf:RDF>
      <cc:Work
         rdf:about="">
        <dc:format>image/svg+xml</dc:format>
        <dc:type
           rdf:resource="http://purl.org/dc/dcmitype/StillImage" />
        <dc:title></dc:title>
      </cc:Work>
    </rdf:RDF>
  </metadata>
  <g
     inkscape:label="Ebene 1"
     inkscape:groupmode="layer"
     id="layer1"
     transform="translate(-47.90569,-83.913057)">
    <g
       id="g891"
       transform="translate(-0.16521199,55.009177)">
      <g
         id="g849"
         transform="matrix(1.8324277,0,0,2.0914238,40.741191,28.90388)"
         style="stroke-width:2.88327">
        <path
           d="M 19.37,17.48 C 19,17.85 18.52,18.1 18,18.18 V 21 c 0,0.55 -0.45,1 -1,1 H 7 C 6.45,22 6,21.55 6,21 V 3 C 6,2.45 6.45,2 7,2 h 0.5 c 0.55,0 1,0.45 1,1 0,0.55 0.45,1 1,1 h 5 0.02 C 15.01,3.99 15.42,3.62 15.49,3.14 15.5,3.1 15.5,3.05 15.5,3 c 0,-0.55 0.45,-1 1,-1 H 17 c 0.03,0 0.06,0 0.09,0.01 C 17.76,1.59 18.46,1.23 19.17,0.94 18.63,0.36 17.86,0 17,0 H 7 C 5.35,0 4,1.35 4,3 v 18 c 0,1.65 1.35,3 3,3 h 10 c 1.65,0 3,-1.35 3,-3 v -4.25 c -0.19,0.26 -0.41,0.51 -0.63,0.73 z"
           id="path833"
           style="stroke-width:2.88327" />
        <path
           d="M 23.854,2.146 C 23.757,2.05 23.614,1.996 23.491,2 20.664,2.053 17.366,3.703 15.272,6.1 13.007,6.181 11.116,6.864 9.937,8.043 9.809,8.171 9.76,8.358 9.809,8.532 9.858,8.706 9.997,8.84 10.174,8.883 l 2.129,0.51 -0.013,0.014 c -0.178,0.197 -0.17,0.5 0.018,0.688 l 3.597,3.597 c 0.097,0.098 0.225,0.146 0.354,0.146 0.12,0 0.239,-0.042 0.334,-0.128 l 0.014,-0.013 0.51,2.129 c 0.042,0.176 0.176,0.316 0.351,0.365 0.045,0.013 0.09,0.019 0.136,0.019 0.131,0 0.258,-0.051 0.354,-0.146 1.18,-1.18 1.862,-3.07 1.943,-5.336 2.4,-2.101 4.047,-5.395 4.1,-8.219 C 24.002,2.374 23.95,2.243 23.854,2.146 Z"
           id="path835"
           style="stroke-width:2.88327" />
        <path
           d="m 10.716,12.347 c -0.671,0.671 -1.53,3.458 -1.695,4.01 -0.053,0.176 -0.004,0.367 0.125,0.497 C 9.242,16.949 9.369,17 9.5,17 c 0.048,0 0.096,-0.007 0.144,-0.021 0.552,-0.165 3.338,-1.023 4.01,-1.695 0.81,-0.81 0.81,-2.127 0,-2.938 -0.812,-0.81 -2.13,-0.809 -2.938,10e-4 z"
           id="path837"
           style="stroke-width:2.88327" />
      </g>
      <g
         aria-label="top gear  brains"
         id="text853"
         style="font-style:normal;font-weight:normal;font-size:25.4px;line-height:0;font-family:sans-serif;letter-spacing:0px;word-spacing:0.703792px;fill:#000000;fill-opacity:1;stroke:none;stroke-width:0.264583">
        <path
           d="m 95.190196,46.038819 q -1.058334,0 -1.534584,-0.599722 -0.47625,-0.617362 -0.47625,-1.516946 v -5.856115 h -1.12889 V 36.56673 H 93.197 l 0.352778,-2.592919 h 1.44639 v 2.592919 h 1.569863 v 1.499306 h -1.569863 v 5.679726 q 0,0.81139 0.758473,0.81139 h 0.81139 v 1.234723 q -0.229306,0.105833 -0.635001,0.176389 -0.388056,0.07055 -0.740834,0.07055 z"
           style="font-style:normal;font-variant:normal;font-weight:500;font-stretch:normal;font-size:17.6389px;font-family:Archivo;-inkscape-font-specification:'Archivo Medium';baseline-shift:baseline"
           id="path1846" />
        <path
           d="m 101.48725,46.056458 q -2.204861,0 -3.316112,-1.181806 -1.093612,-1.199445 -1.093612,-3.668891 0,-2.469447 1.093612,-3.651253 1.111251,-1.199445 3.316112,-1.199445 2.20486,0 3.31611,1.199445 1.11125,1.181806 1.11125,3.651253 0,2.469446 -1.11125,3.668891 -1.11125,1.181806 -3.31611,1.181806 z m 0,-1.499306 q 1.34056,0 1.94028,-0.776112 0.61736,-0.793751 0.61736,-2.487085 v -0.176389 q 0,-1.693334 -0.61736,-2.469446 -0.59972,-0.793751 -1.94028,-0.793751 -1.32292,0 -1.940277,0.793751 -0.599723,0.776112 -0.599723,2.469446 v 0.176389 q 0,1.693334 0.599723,2.487085 0.617357,0.776112 1.940277,0.776112 z"
           style="font-style:normal;font-variant:normal;font-weight:500;font-stretch:normal;font-size:17.6389px;font-family:Archivo;-inkscape-font-specification:'Archivo Medium';baseline-shift:baseline"
           id="path1848" />
        <path
           d="m 107.74906,36.56673 h 1.44639 l 0.17639,1.234723 h 0.12347 q 0.44097,-0.705556 1.1818,-1.075973 0.75848,-0.370417 1.6757,-0.370417 1.76389,0 2.71639,1.199445 0.9525,1.181806 0.9525,3.651253 0,2.434168 -0.9525,3.651252 -0.9525,1.199445 -2.59292,1.199445 -1.92264,0 -2.80458,-1.270001 h -0.10584 v 4.109864 h -1.8168 z m 4.09222,7.955144 q 1.25236,0 1.78153,-0.740834 0.52917,-0.740834 0.52917,-2.469446 v -0.15875 q 0,-1.76389 -0.52917,-2.504724 -0.52917,-0.758473 -1.78153,-0.758473 -1.1818,0 -1.72861,0.829029 -0.54681,0.829028 -0.54681,2.434168 v 0.141111 q 0,1.587501 0.54681,2.416529 0.54681,0.81139 1.72861,0.81139 z"
           style="font-style:normal;font-variant:normal;font-weight:500;font-stretch:normal;font-size:17.6389px;font-family:Archivo;-inkscape-font-specification:'Archivo Medium';baseline-shift:baseline"
           id="path1850" />
        <path
           d="m 124.53952,49.055071 q -0.98778,0 -1.72861,-0.546806 -0.7232,-0.546805 -0.7232,-1.658056 0,-1.375835 1.48167,-1.957918 -0.42333,-0.229306 -0.68792,-0.582084 -0.26458,-0.370417 -0.26458,-0.829028 0,-0.65264 0.47625,-1.023057 0.47625,-0.388055 1.09361,-0.546805 -0.59972,-0.423334 -0.93486,-1.040696 -0.33514,-0.617361 -0.33514,-1.375834 0,-1.481668 1.02306,-2.310696 1.02305,-0.829028 2.83986,-0.829028 0.97014,0 1.78153,0.299861 1.11125,-0.582084 1.25236,-1.60514 h 1.74625 q 0,0.881945 -0.49389,1.481668 -0.49388,0.599722 -1.35819,0.79375 0.9525,0.846668 0.9525,2.169585 0,1.464029 -1.02306,2.293057 -1.02305,0.829029 -2.82222,0.829029 h -1.46403 q -0.42333,0 -0.65264,0.194027 -0.2293,0.194028 -0.2293,0.49389 0,0.299861 0.21166,0.493889 0.22931,0.194028 0.635,0.194028 h 3.88056 q 1.07597,0 1.72861,0.670278 0.65264,0.670278 0.65264,1.658057 0,0.723195 -0.35278,1.340556 -0.35277,0.635001 -1.05833,1.005418 -0.70556,0.388055 -1.69333,0.388055 z m 2.24014,-7.761116 q 1.02306,0 1.55222,-0.458611 0.52917,-0.476251 0.52917,-1.340557 0,-0.864306 -0.52917,-1.322917 -0.51152,-0.476251 -1.55222,-0.476251 -1.02305,0 -1.55222,0.476251 -0.51153,0.458611 -0.51153,1.322917 0,0.864306 0.51153,1.340557 0.52917,0.458611 1.55222,0.458611 z m 1.71097,6.385282 q 0.54681,0 0.89959,-0.299861 0.37042,-0.299862 0.37042,-0.776112 0,-0.47625 -0.29987,-0.758473 -0.29986,-0.282222 -0.77611,-0.282222 h -3.72181 q -0.47625,0 -0.77611,0.282222 -0.28222,0.282223 -0.28222,0.758473 0,0.493889 0.28222,0.776112 0.29986,0.299861 0.77611,0.299861 z"
           style="font-style:normal;font-variant:normal;font-weight:500;font-stretch:normal;font-size:17.6389px;font-family:Archivo;-inkscape-font-specification:'Archivo Medium';baseline-shift:baseline"
           id="path1852" />
        <path
           d="m 136.4105,46.056458 q -2.24014,0 -3.33376,-1.181806 -1.09361,-1.181806 -1.09361,-3.668891 0,-2.487085 1.09361,-3.668892 1.09362,-1.181806 3.33376,-1.181806 2.02847,0 3.03389,1.111251 1.00541,1.093611 1.00541,3.492502 v 0.705556 h -6.59694 q 0.0705,1.499306 0.67027,2.222501 0.61737,0.705556 1.90501,0.705556 1.00541,0 1.62277,-0.47625 0.61737,-0.47625 0.61737,-1.464029 h 1.78152 q 0,1.658057 -1.12889,2.540002 -1.11125,0.864306 -2.91041,0.864306 z m 2.15194,-5.76792 q 0,-2.469446 -2.15194,-2.469446 -1.19945,0 -1.79917,0.599722 -0.59972,0.582084 -0.7232,1.869724 z"
           style="font-style:normal;font-variant:normal;font-weight:500;font-stretch:normal;font-size:17.6389px;font-family:Archivo;-inkscape-font-specification:'Archivo Medium';baseline-shift:baseline"
           id="path1854" />
        <path
           d="m 144.71841,46.056458 q -1.14652,0 -2.08139,-0.564445 -0.91722,-0.564444 -0.91722,-2.046112 0,-1.781529 1.55222,-2.469446 1.55223,-0.687917 4.44501,-0.687917 v -0.917223 q 0,-0.758473 -0.4057,-1.146529 -0.38805,-0.405694 -1.46403,-0.405694 -1.04069,0 -1.48166,0.370416 -0.42334,0.370417 -0.42334,0.899584 v 0.229306 h -1.76389 q -0.0176,-0.105833 -0.0176,-0.388056 0,-1.217084 1.02306,-1.887362 1.02306,-0.687917 2.73403,-0.687917 1.79917,0 2.69875,0.740834 0.91722,0.740833 0.91722,2.099029 v 4.744864 q 0,0.3175 0.17639,0.47625 0.17639,0.141112 0.44098,0.141112 h 0.635 v 1.217084 q -0.45862,0.229306 -1.25237,0.229306 -0.635,0 -1.07597,-0.33514 -0.42333,-0.352778 -0.56444,-0.9525 h -0.12348 q -0.49389,0.635 -1.27,0.987778 -0.75847,0.352778 -1.78153,0.352778 z m 0.52917,-1.481667 q 1.0407,0 1.74625,-0.617362 0.7232,-0.635 0.7232,-1.728612 v -0.564445 q -2.01084,0 -3.06917,0.352778 -1.05834,0.335139 -1.05834,1.28764 0,0.652639 0.4057,0.970139 0.42333,0.299862 1.25236,0.299862 z"
           style="font-style:normal;font-variant:normal;font-weight:500;font-stretch:normal;font-size:17.6389px;font-family:Archivo;-inkscape-font-specification:'Archivo Medium';baseline-shift:baseline"
           id="path1856" />
        <path
           d="m 152.12675,36.56673 h 1.46403 l 0.17639,1.428751 h 0.10583 q 0.635,-1.640418 2.13431,-1.640418 0.49389,0 0.8643,0.141111 v 1.728612 h -0.65264 q -1.04069,0 -1.65805,0.599723 -0.61737,0.599723 -0.61737,1.834446 v 5.185836 h -1.8168 z"
           style="font-style:normal;font-variant:normal;font-weight:500;font-stretch:normal;font-size:17.6389px;font-family:Archivo;-inkscape-font-specification:'Archivo Medium';baseline-shift:baseline"
           id="path1858" />
        <path
           d="m 101.9547,72.272974 q 1.68379,0 2.56229,-1.229899 0.89314,-1.229899 0.89314,-3.572563 0,-2.342664 -0.89314,-3.572562 -0.8785,-1.229899 -2.56229,-1.229899 -1.68379,0 -2.591574,1.24454 -0.893136,1.229899 -0.893136,3.557921 0,2.328023 0.893136,3.572563 0.907784,1.229899 2.591574,1.229899 z M 98.46999,61.657777 q 1.083483,-1.434881 2.40122,-2.108397 1.31775,-0.688158 3.03083,-0.688158 3.03082,0 4.97816,2.415872 1.94734,2.401231 1.94734,6.193418 0,3.792188 -1.94734,6.20806 -1.94734,2.401231 -4.97816,2.401231 -1.71308,0 -3.03083,-0.673516 -1.317737,-0.688158 -2.40122,-2.12304 v 2.371948 H 93.228279 V 52.872787 h 5.241711 z"
           style="font-style:normal;font-variant:normal;font-weight:bold;font-stretch:normal;font-size:29.9861px;line-height:0.85;font-family:sans-serif;-inkscape-font-specification:'sans-serif Bold';letter-spacing:-0.187854px;stroke-width:0.264583"
           id="path1860" />
        <path
           d="m 126.15776,63.72225 q -0.68816,-0.322116 -1.37631,-0.468533 -0.67352,-0.161058 -1.36168,-0.161058 -2.02055,0 -3.11867,1.303107 -1.08348,1.288465 -1.08348,3.704337 v 7.555092 h -5.24171 V 59.256547 h 5.24171 v 2.694063 q 1.01027,-1.610581 2.31338,-2.342664 1.31775,-0.746724 3.14795,-0.746724 0.26355,0 0.57103,0.02928 0.30747,0.01464 0.89314,0.08785 z"
           style="font-style:normal;font-variant:normal;font-weight:bold;font-stretch:normal;font-size:29.9861px;line-height:0.85;font-family:sans-serif;-inkscape-font-specification:'sans-serif Bold';letter-spacing:-0.187854px;stroke-width:0.264583"
           id="path1862" />
        <path
           d="m 136.4554,68.275803 q -1.63987,0 -2.47444,0.556383 -0.81993,0.556383 -0.81993,1.639865 0,0.995632 0.65887,1.566656 0.67352,0.556383 1.85949,0.556383 1.47881,0 2.48908,-1.054199 1.01028,-1.06884 1.01028,-2.66478 v -0.600308 z m 8.00898,-1.976623 v 9.356015 h -5.28563 v -2.430514 q -1.0542,1.493448 -2.37195,2.181606 -1.31775,0.673516 -3.20652,0.673516 -2.54765,0 -4.14359,-1.478807 -1.5813,-1.493448 -1.5813,-3.865396 0,-2.884405 1.97663,-4.231437 1.99126,-1.347031 6.23734,-1.347031 h 3.08939 v -0.409967 q 0,-1.24454 -0.98099,-1.815564 -0.98099,-0.585666 -3.06011,-0.585666 -1.68379,0 -3.13331,0.336758 -1.44953,0.336758 -2.69407,1.010274 v -3.997171 q 1.68379,-0.409966 3.38223,-0.614949 1.69843,-0.219625 3.39686,-0.219625 4.43642,0 6.3984,1.756998 1.97662,1.742357 1.97662,5.68096 z"
           style="font-style:normal;font-variant:normal;font-weight:bold;font-stretch:normal;font-size:29.9861px;line-height:0.85;font-family:sans-serif;-inkscape-font-specification:'sans-serif Bold';letter-spacing:-0.187854px;stroke-width:0.264583"
           id="path1864" />
        <path
           d="m 148.62303,59.256547 h 5.24171 v 16.398648 h -5.24171 z m 0,-6.38376 h 5.24171 v 4.275362 h -5.24171 z"
           style="font-style:normal;font-variant:normal;font-weight:bold;font-stretch:normal;font-size:29.9861px;line-height:0.85;font-family:sans-serif;-inkscape-font-specification:'sans-serif Bold';letter-spacing:-0.187854px;stroke-width:0.264583"
           id="path1866" />
        <path
           d="m 174.67094,65.669589 v 9.985606 h -5.27099 v -1.625223 -6.017719 q 0,-2.123039 -0.10249,-2.92833 -0.0879,-0.80529 -0.32212,-1.185973 -0.30747,-0.512458 -0.83457,-0.790649 -0.5271,-0.292833 -1.20062,-0.292833 -1.63986,0 -2.57693,1.273823 -0.93706,1.259182 -0.93706,3.499355 v 8.067549 h -5.24172 V 59.256547 h 5.24172 v 2.40123 q 1.18597,-1.434881 2.51836,-2.108397 1.33239,-0.688158 2.94297,-0.688158 2.84048,0 4.30465,1.742357 1.4788,1.742356 1.4788,5.06601 z"
           style="font-style:normal;font-variant:normal;font-weight:bold;font-stretch:normal;font-size:29.9861px;line-height:0.85;font-family:sans-serif;-inkscape-font-specification:'sans-serif Bold';letter-spacing:-0.187854px;stroke-width:0.264583"
           id="path1868" />
        <path
           d="m 192.15556,59.769004 v 3.982529 q -1.68379,-0.702799 -3.25045,-1.054199 -1.56666,-0.351399 -2.95761,-0.351399 -1.49345,0 -2.22553,0.380683 -0.71745,0.366041 -0.71745,1.142048 0,0.629591 0.54175,0.966349 0.55638,0.336758 1.97662,0.497816 l 0.92242,0.131775 q 4.02646,0.512458 5.41741,1.68379 1.39096,1.171332 1.39096,3.675054 0,2.620856 -1.9327,3.938604 -1.9327,1.317749 -5.76881,1.317749 -1.62522,0 -3.36758,-0.26355 -1.72771,-0.248908 -3.55792,-0.761366 v -3.982529 q 1.56666,0.761366 3.20652,1.142049 1.65451,0.380683 3.35294,0.380683 1.53737,0 2.31338,-0.424608 0.77601,-0.424608 0.77601,-1.259182 0,-0.702799 -0.54174,-1.039557 -0.5271,-0.3514 -2.12304,-0.541741 l -0.92243,-0.117133 q -3.49935,-0.43925 -4.90495,-1.625223 -1.4056,-1.185974 -1.4056,-3.601846 0,-2.606214 1.78628,-3.865396 1.78629,-1.259182 5.47598,-1.259182 1.44953,0 3.04547,0.219625 1.59593,0.219625 3.47007,0.688157 z"
           style="font-style:normal;font-variant:normal;font-weight:bold;font-stretch:normal;font-size:29.9861px;line-height:0.85;font-family:sans-serif;-inkscape-font-specification:'sans-serif Bold';letter-spacing:-0.187854px;stroke-width:0.264583"
           id="path1870" />
      </g>
      <text
         xml:space="preserve"
         id="text867"
         style="font-style:normal;font-weight:normal;font-size:10.5833px;line-height:1.25;font-family:sans-serif;letter-spacing:0px;word-spacing:0px;white-space:pre;shape-inside:url(#rect869);fill:#000000;fill-opacity:1;stroke:none;" />
      <text
         xml:space="preserve"
         id="text873"
         style="font-style:normal;font-weight:normal;font-size:10.5833px;line-height:1.25;font-family:sans-serif;letter-spacing:0px;word-spacing:0px;white-space:pre;shape-inside:url(#rect875);fill:#000000;fill-opacity:1;stroke:none;" />
      <text
         xml:space="preserve"
         id="text879"
         style="font-style:normal;font-weight:normal;font-size:10.5833px;line-height:1.25;font-family:sans-serif;letter-spacing:0px;word-spacing:0px;white-space:pre;shape-inside:url(#rect881);fill:#000000;fill-opacity:1;stroke:none;" />
      <text
         xml:space="preserve"
         id="text885"
         style="font-style:normal;font-weight:normal;font-size:10.5833px;line-height:1.25;font-family:sans-serif;letter-spacing:0px;word-spacing:0px;white-space:pre;shape-inside:url(#rect887);fill:#000000;fill-opacity:1;stroke:none;" />
      <text
         xml:space="preserve"
         id="text891"
         style="font-style:normal;font-weight:normal;font-size:10.5833px;line-height:1.25;font-family:sans-serif;letter-spacing:0px;word-spacing:0px;white-space:pre;shape-inside:url(#rect893);fill:#000000;fill-opacity:1;stroke:none;" />
    </g>
  </g>
</svg>
