<?xml version="1.0" encoding="UTF-8" standalone="no"?>
<svg
   xmlns:dc="http://purl.org/dc/elements/1.1/"
   xmlns:cc="http://creativecommons.org/ns#"
   xmlns:rdf="http://www.w3.org/1999/02/22-rdf-syntax-ns#"
   xmlns:svg="http://www.w3.org/2000/svg"
   xmlns="http://www.w3.org/2000/svg"
   xmlns:sodipodi="http://sodipodi.sourceforge.net/DTD/sodipodi-0.dtd"
   xmlns:inkscape="http://www.inkscape.org/namespaces/inkscape"
   width="145.18279mm"
   height="50.194172mm"
   viewBox="0 0 145.18279 50.194172"
   version="1.1"
   id="svg1515"
   inkscape:version="1.0.1 (1.0.1+r73)"
   sodipodi:docname="logo-vektorisiert-white.svg">
  <defs
     id="defs1509">
    <rect
       x="207.07698"
       y="-104.0198"
       width="0.00026054974"
       height="78.057884"
       id="rect869" />
    <rect
       x="207.82686"
       y="-204.675"
       width="48.129902"
       height="17.317753"
       id="rect875" />
    <rect
       x="427.02396"
       y="-208.06448"
       width="41.082626"
       height="87.371071"
       id="rect881" />
    <rect
       x="379.19458"
       y="-284.69516"
       width="5.9338713"
       height="38.575985"
       id="rect887" />
    <rect
       x="274.1062"
       y="-299.40659"
       width="60.979378"
       height="12.459749"
       id="rect893" />
  </defs>
  <sodipodi:namedview
     id="base"
     pagecolor="#ffffff"
     bordercolor="#666666"
     borderopacity="1.0"
     inkscape:pageopacity="0.0"
     inkscape:pageshadow="2"
     inkscape:zoom="0.35"
     inkscape:cx="218.93913"
     inkscape:cy="242.84829"
     inkscape:document-units="mm"
     inkscape:current-layer="layer1"
     inkscape:document-rotation="0"
     showgrid="false"
     inkscape:window-width="3784"
     inkscape:window-height="2105"
     inkscape:window-x="56"
     inkscape:window-y="27"
     inkscape:window-maximized="1"
     showborder="true"
     fit-margin-top="0"
     fit-margin-left="0"
     fit-margin-right="0"
     fit-margin-bottom="0" />
  <metadata
     id="metadata1512">
    <rdf:RDF>
      <cc:Work
         rdf:about="">
        <dc:format>image/svg+xml</dc:format>
        <dc:type
           rdf:resource="http://purl.org/dc/dcmitype/StillImage" />
        <dc:title></dc:title>
      </cc:Work>
    </rdf:RDF>
  </metadata>
  <g
     inkscape:label="Ebene 1"
     inkscape:groupmode="layer"
     id="layer1"
     transform="translate(-47.90569,-83.913057)">
    <path
       d="m 76.070104,120.47115 c -0.677999,0.77382 -1.557564,1.29668 -2.510426,1.46399 v 5.89782 c 0,1.15028 -0.824593,2.09142 -1.832428,2.09142 H 53.402973 c -1.007835,0 -1.832428,-0.94114 -1.832428,-2.09142 V 90.187328 c 0,-1.150283 0.824593,-2.091423 1.832428,-2.091423 h 0.916214 c 1.007835,0 1.832427,0.94114 1.832427,2.091423 0,1.150283 0.824593,2.091424 1.832428,2.091424 h 9.162139 0.03665 c 0.89789,-0.02091 1.649185,-0.794741 1.777455,-1.798624 0.01832,-0.08366 0.01832,-0.188228 0.01832,-0.2928 0,-1.150283 0.824593,-2.091423 1.832428,-2.091423 h 0.916214 c 0.05497,0 0.109946,0 0.164918,0.02091 1.227727,-0.878398 2.510426,-1.631311 3.81145,-2.237824 -0.989511,-1.213025 -2.40048,-1.965938 -3.976368,-1.965938 H 53.402973 c -3.023506,0 -5.497283,2.823422 -5.497283,6.274271 v 37.645636 c 0,3.45085 2.473777,6.27427 5.497283,6.27427 H 71.72725 c 3.023506,0 5.497283,-2.82342 5.497283,-6.27427 v -8.88855 c -0.348161,0.54377 -0.751295,1.06662 -1.154429,1.52674 z"
       id="path833"
       style="stroke-width:5.64443;fill:#ffffff;fill-opacity:1" />
    <path
       d="m 84.286709,88.401252 c -0.177745,-0.200776 -0.439782,-0.313713 -0.665171,-0.305347 -5.180273,0.110845 -11.22362,3.561694 -15.060723,8.574837 -4.150449,0.169406 -7.61557,1.597848 -9.776002,4.063638 -0.234551,0.2677 -0.32434,0.6588 -0.234551,1.0227 0.08979,0.36391 0.344497,0.64416 0.668836,0.73409 l 3.901239,1.06663 -0.02382,0.0293 c -0.326172,0.41201 -0.311512,1.04571 0.03298,1.4389 l 6.591243,7.52285 c 0.177745,0.20496 0.412296,0.30535 0.648679,0.30535 0.219891,0 0.43795,-0.0878 0.612031,-0.2677 l 0.02565,-0.0272 0.934538,4.45264 c 0.07696,0.36809 0.322507,0.66089 0.643182,0.76337 0.08246,0.0272 0.164919,0.0397 0.24921,0.0397 0.240048,0 0.472767,-0.10667 0.64868,-0.30535 2.162264,-2.46788 3.41198,-6.42067 3.560407,-11.15984 4.397826,-4.39408 7.415835,-11.28323 7.512953,-17.189411 0.0018,-0.282342 -0.09345,-0.556318 -0.269367,-0.759187 z"
       id="path835"
       style="stroke-width:5.64443;fill:#ffffff;fill-opacity:1" />
    <path
       d="m 60.212274,109.73587 c -1.229559,1.40334 -2.803614,7.23214 -3.105965,8.38661 -0.09712,0.36809 -0.0073,0.76755 0.229054,1.03943 0.175913,0.19869 0.408631,0.30535 0.648679,0.30535 0.08796,0 0.175913,-0.0146 0.26387,-0.0439 1.0115,-0.34508 6.116643,-2.13952 7.348035,-3.54496 1.484266,-1.69405 1.484266,-4.44846 0,-6.1446 -1.487931,-1.69406 -3.903071,-1.69197 -5.383673,0.002 z"
       id="path837"
       style="stroke-width:5.64443;fill:#ffffff;fill-opacity:1" />
    <path
       d="m 95.024984,101.048 q -1.058334,0 -1.534584,-0.59973 -0.47625,-0.617358 -0.47625,-1.516942 v -5.856115 h -1.12889 v -1.499306 h 1.146528 l 0.352778,-2.592919 h 1.44639 v 2.592919 h 1.569863 v 1.499306 h -1.569863 v 5.679726 q 0,0.81139 0.758473,0.81139 h 0.81139 v 1.234721 q -0.229306,0.10584 -0.635001,0.17639 -0.388056,0.0705 -0.740834,0.0705 z"
       style="font-style:normal;font-variant:normal;font-weight:500;font-stretch:normal;font-size:17.6389px;line-height:0;font-family:Archivo;-inkscape-font-specification:'Archivo Medium';letter-spacing:0px;word-spacing:0.703792px;baseline-shift:baseline;fill:#ffffff;fill-opacity:1;stroke:none;stroke-width:0.264583"
       id="path1846" />
    <path
       d="m 101.32204,101.06564 q -2.204863,0 -3.316114,-1.181811 -1.093612,-1.199445 -1.093612,-3.668891 0,-2.469447 1.093612,-3.651253 1.111251,-1.199445 3.316114,-1.199445 2.20486,0 3.31611,1.199445 1.11125,1.181806 1.11125,3.651253 0,2.469446 -1.11125,3.668891 -1.11125,1.181811 -3.31611,1.181811 z m 0,-1.499311 q 1.34056,0 1.94028,-0.776112 0.61736,-0.793751 0.61736,-2.487085 v -0.176389 q 0,-1.693334 -0.61736,-2.469446 -0.59972,-0.793751 -1.94028,-0.793751 -1.322922,0 -1.940279,0.793751 -0.599723,0.776112 -0.599723,2.469446 v 0.176389 q 0,1.693334 0.599723,2.487085 0.617357,0.776112 1.940279,0.776112 z"
       style="font-style:normal;font-variant:normal;font-weight:500;font-stretch:normal;font-size:17.6389px;line-height:0;font-family:Archivo;-inkscape-font-specification:'Archivo Medium';letter-spacing:0px;word-spacing:0.703792px;baseline-shift:baseline;fill:#ffffff;fill-opacity:1;stroke:none;stroke-width:0.264583"
       id="path1848" />
    <path
       d="m 107.58385,91.575907 h 1.44639 l 0.17639,1.234723 h 0.12347 q 0.44097,-0.705556 1.1818,-1.075973 0.75848,-0.370417 1.6757,-0.370417 1.76389,0 2.71639,1.199445 0.9525,1.181806 0.9525,3.651253 0,2.434168 -0.9525,3.651252 -0.9525,1.19944 -2.59292,1.19944 -1.92264,0 -2.80458,-1.269996 h -0.10584 v 4.109866 h -1.8168 z m 4.09222,7.955144 q 1.25236,0 1.78153,-0.740834 0.52917,-0.740834 0.52917,-2.469446 v -0.15875 q 0,-1.76389 -0.52917,-2.504724 -0.52917,-0.758473 -1.78153,-0.758473 -1.1818,0 -1.72861,0.829029 -0.54681,0.829028 -0.54681,2.434168 v 0.141111 q 0,1.587501 0.54681,2.416529 0.54681,0.81139 1.72861,0.81139 z"
       style="font-style:normal;font-variant:normal;font-weight:500;font-stretch:normal;font-size:17.6389px;line-height:0;font-family:Archivo;-inkscape-font-specification:'Archivo Medium';letter-spacing:0px;word-spacing:0.703792px;baseline-shift:baseline;fill:#ffffff;fill-opacity:1;stroke:none;stroke-width:0.264583"
       id="path1850" />
    <path
       d="m 124.37431,104.06425 q -0.98778,0 -1.72861,-0.54681 -0.7232,-0.5468 -0.7232,-1.65805 0,-1.37584 1.48167,-1.957922 -0.42333,-0.229306 -0.68792,-0.582084 -0.26458,-0.370417 -0.26458,-0.829028 0,-0.65264 0.47625,-1.023057 0.47625,-0.388055 1.09361,-0.546805 -0.59972,-0.423334 -0.93486,-1.040696 -0.33514,-0.617361 -0.33514,-1.375834 0,-1.481668 1.02306,-2.310696 1.02305,-0.829028 2.83986,-0.829028 0.97014,0 1.78153,0.299861 1.11125,-0.582084 1.25236,-1.60514 h 1.74625 q 0,0.881945 -0.49389,1.481668 -0.49388,0.599722 -1.35819,0.79375 0.9525,0.846668 0.9525,2.169585 0,1.464029 -1.02306,2.293057 -1.02305,0.829029 -2.82222,0.829029 h -1.46403 q -0.42333,0 -0.65264,0.194027 -0.2293,0.194028 -0.2293,0.49389 0,0.299861 0.21166,0.493889 0.22931,0.194028 0.635,0.194028 h 3.88056 q 1.07597,0 1.72861,0.670278 0.65264,0.670278 0.65264,1.658058 0,0.72319 -0.35278,1.34056 -0.35277,0.635 -1.05833,1.00541 -0.70556,0.38806 -1.69333,0.38806 z m 2.24014,-7.761118 q 1.02306,0 1.55222,-0.458611 0.52917,-0.476251 0.52917,-1.340557 0,-0.864306 -0.52917,-1.322917 -0.51152,-0.476251 -1.55222,-0.476251 -1.02305,0 -1.55222,0.476251 -0.51153,0.458611 -0.51153,1.322917 0,0.864306 0.51153,1.340557 0.52917,0.458611 1.55222,0.458611 z m 1.71097,6.385278 q 0.54681,0 0.89959,-0.29986 0.37042,-0.29986 0.37042,-0.77611 0,-0.47625 -0.29987,-0.75847 -0.29986,-0.28222 -0.77611,-0.28222 h -3.72181 q -0.47625,0 -0.77611,0.28222 -0.28222,0.28222 -0.28222,0.75847 0,0.49389 0.28222,0.77611 0.29986,0.29986 0.77611,0.29986 z"
       style="font-style:normal;font-variant:normal;font-weight:500;font-stretch:normal;font-size:17.6389px;line-height:0;font-family:Archivo;-inkscape-font-specification:'Archivo Medium';letter-spacing:0px;word-spacing:0.703792px;baseline-shift:baseline;fill:#ffffff;fill-opacity:1;stroke:none;stroke-width:0.264583"
       id="path1852" />
    <path
       d="m 136.24529,101.06564 q -2.24014,0 -3.33376,-1.181811 -1.09361,-1.181806 -1.09361,-3.668891 0,-2.487085 1.09361,-3.668892 1.09362,-1.181806 3.33376,-1.181806 2.02847,0 3.03389,1.111251 1.00541,1.093611 1.00541,3.492502 v 0.705556 h -6.59694 q 0.0705,1.499306 0.67027,2.222501 0.61737,0.705556 1.90501,0.705556 1.00541,0 1.62277,-0.47625 0.61737,-0.47625 0.61737,-1.464029 h 1.78152 q 0,1.658057 -1.12889,2.540003 -1.11125,0.86431 -2.91041,0.86431 z m 2.15194,-5.767925 q 0,-2.469446 -2.15194,-2.469446 -1.19945,0 -1.79917,0.599722 -0.59972,0.582084 -0.7232,1.869724 z"
       style="font-style:normal;font-variant:normal;font-weight:500;font-stretch:normal;font-size:17.6389px;line-height:0;font-family:Archivo;-inkscape-font-specification:'Archivo Medium';letter-spacing:0px;word-spacing:0.703792px;baseline-shift:baseline;fill:#ffffff;fill-opacity:1;stroke:none;stroke-width:0.264583"
       id="path1854" />
    <path
       d="m 144.5532,101.06564 q -1.14652,0 -2.08139,-0.56445 -0.91722,-0.564444 -0.91722,-2.046112 0,-1.781529 1.55222,-2.469446 1.55223,-0.687917 4.44501,-0.687917 v -0.917223 q 0,-0.758473 -0.4057,-1.146529 -0.38805,-0.405694 -1.46403,-0.405694 -1.04069,0 -1.48166,0.370416 -0.42334,0.370417 -0.42334,0.899584 v 0.229306 h -1.76389 q -0.0176,-0.105833 -0.0176,-0.388056 0,-1.217084 1.02306,-1.887362 1.02306,-0.687917 2.73403,-0.687917 1.79917,0 2.69875,0.740834 0.91722,0.740833 0.91722,2.099029 v 4.744864 q 0,0.3175 0.17639,0.47625 0.17639,0.141112 0.44098,0.141112 h 0.635 v 1.217081 q -0.45862,0.22931 -1.25237,0.22931 -0.635,0 -1.07597,-0.33514 -0.42333,-0.35278 -0.56444,-0.952501 h -0.12348 q -0.49389,0.635001 -1.27,0.987781 -0.75847,0.35278 -1.78153,0.35278 z m 0.52917,-1.481672 q 1.0407,0 1.74625,-0.617362 0.7232,-0.635 0.7232,-1.728612 v -0.564445 q -2.01084,0 -3.06917,0.352778 -1.05834,0.335139 -1.05834,1.28764 0,0.652639 0.4057,0.970139 0.42333,0.299862 1.25236,0.299862 z"
       style="font-style:normal;font-variant:normal;font-weight:500;font-stretch:normal;font-size:17.6389px;line-height:0;font-family:Archivo;-inkscape-font-specification:'Archivo Medium';letter-spacing:0px;word-spacing:0.703792px;baseline-shift:baseline;fill:#ffffff;fill-opacity:1;stroke:none;stroke-width:0.264583"
       id="path1856" />
    <path
       d="m 151.96154,91.575907 h 1.46403 l 0.17639,1.428751 h 0.10583 q 0.635,-1.640418 2.13431,-1.640418 0.49389,0 0.8643,0.141111 v 1.728612 h -0.65264 q -1.04069,0 -1.65805,0.599723 -0.61737,0.599723 -0.61737,1.834446 v 5.185838 h -1.8168 z"
       style="font-style:normal;font-variant:normal;font-weight:500;font-stretch:normal;font-size:17.6389px;line-height:0;font-family:Archivo;-inkscape-font-specification:'Archivo Medium';letter-spacing:0px;word-spacing:0.703792px;baseline-shift:baseline;fill:#ffffff;fill-opacity:1;stroke:none;stroke-width:0.264583"
       id="path1858" />
    <path
       d="m 101.78949,127.28215 q 1.68379,0 2.56229,-1.2299 0.89314,-1.2299 0.89314,-3.57256 0,-2.34267 -0.89314,-3.57256 -0.8785,-1.2299 -2.56229,-1.2299 -1.68379,0 -2.591576,1.24454 -0.893136,1.2299 -0.893136,3.55792 0,2.32802 0.893136,3.57256 0.907786,1.2299 2.591576,1.2299 z m -3.484712,-10.6152 q 1.083483,-1.43488 2.401222,-2.10839 1.31775,-0.68816 3.03083,-0.68816 3.03082,0 4.97816,2.41587 1.94734,2.40123 1.94734,6.19342 0,3.79219 -1.94734,6.20806 -1.94734,2.40123 -4.97816,2.40123 -1.71308,0 -3.03083,-0.67352 -1.317739,-0.68815 -2.401222,-2.12304 v 2.37195 h -5.241711 v -22.78241 h 5.241711 z"
       style="font-style:normal;font-variant:normal;font-weight:bold;font-stretch:normal;font-size:29.9861px;line-height:0.85;font-family:sans-serif;-inkscape-font-specification:'sans-serif Bold';letter-spacing:-0.187854px;word-spacing:0.703792px;fill:#ffffff;fill-opacity:1;stroke:none;stroke-width:0.264583"
       id="path1860" />
    <path
       d="m 125.99255,118.73143 q -0.68816,-0.32212 -1.37631,-0.46854 -0.67352,-0.16105 -1.36168,-0.16105 -2.02055,0 -3.11867,1.3031 -1.08348,1.28847 -1.08348,3.70434 v 7.55509 h -5.24171 v -16.39865 h 5.24171 v 2.69407 q 1.01027,-1.61058 2.31338,-2.34267 1.31775,-0.74672 3.14795,-0.74672 0.26355,0 0.57103,0.0293 0.30747,0.0146 0.89314,0.0879 z"
       style="font-style:normal;font-variant:normal;font-weight:bold;font-stretch:normal;font-size:29.9861px;line-height:0.85;font-family:sans-serif;-inkscape-font-specification:'sans-serif Bold';letter-spacing:-0.187854px;word-spacing:0.703792px;fill:#ffffff;fill-opacity:1;stroke:none;stroke-width:0.264583"
       id="path1862" />
    <path
       d="m 136.29019,123.28498 q -1.63987,0 -2.47444,0.55638 -0.81993,0.55639 -0.81993,1.63987 0,0.99563 0.65887,1.56665 0.67352,0.55639 1.85949,0.55639 1.47881,0 2.48908,-1.0542 1.01028,-1.06884 1.01028,-2.66478 v -0.60031 z m 8.00898,-1.97662 v 9.35601 h -5.28563 v -2.43051 q -1.0542,1.49345 -2.37195,2.1816 -1.31775,0.67352 -3.20652,0.67352 -2.54765,0 -4.14359,-1.47881 -1.5813,-1.49345 -1.5813,-3.86539 0,-2.88441 1.97663,-4.23144 1.99126,-1.34703 6.23734,-1.34703 h 3.08939 v -0.40997 q 0,-1.24454 -0.98099,-1.81556 -0.98099,-0.58567 -3.06011,-0.58567 -1.68379,0 -3.13331,0.33676 -1.44953,0.33676 -2.69407,1.01027 v -3.99717 q 1.68379,-0.40996 3.38223,-0.61495 1.69843,-0.21962 3.39686,-0.21962 4.43642,0 6.3984,1.757 1.97662,1.74235 1.97662,5.68096 z"
       style="font-style:normal;font-variant:normal;font-weight:bold;font-stretch:normal;font-size:29.9861px;line-height:0.85;font-family:sans-serif;-inkscape-font-specification:'sans-serif Bold';letter-spacing:-0.187854px;word-spacing:0.703792px;fill:#ffffff;fill-opacity:1;stroke:none;stroke-width:0.264583"
       id="path1864" />
    <path
       d="m 148.45782,114.26572 h 5.24171 v 16.39865 h -5.24171 z m 0,-6.38376 h 5.24171 v 4.27537 h -5.24171 z"
       style="font-style:normal;font-variant:normal;font-weight:bold;font-stretch:normal;font-size:29.9861px;line-height:0.85;font-family:sans-serif;-inkscape-font-specification:'sans-serif Bold';letter-spacing:-0.187854px;word-spacing:0.703792px;fill:#ffffff;fill-opacity:1;stroke:none;stroke-width:0.264583"
       id="path1866" />
    <path
       d="m 174.50573,120.67877 v 9.9856 h -5.27099 v -1.62522 -6.01772 q 0,-2.12304 -0.10249,-2.92833 -0.0879,-0.80529 -0.32212,-1.18597 -0.30747,-0.51246 -0.83457,-0.79065 -0.5271,-0.29283 -1.20062,-0.29283 -1.63986,0 -2.57693,1.27382 -0.93706,1.25918 -0.93706,3.49935 v 8.06755 h -5.24172 v -16.39865 h 5.24172 v 2.40123 q 1.18597,-1.43488 2.51836,-2.10839 1.33239,-0.68816 2.94297,-0.68816 2.84048,0 4.30465,1.74236 1.4788,1.74235 1.4788,5.06601 z"
       style="font-style:normal;font-variant:normal;font-weight:bold;font-stretch:normal;font-size:29.9861px;line-height:0.85;font-family:sans-serif;-inkscape-font-specification:'sans-serif Bold';letter-spacing:-0.187854px;word-spacing:0.703792px;fill:#ffffff;fill-opacity:1;stroke:none;stroke-width:0.264583"
       id="path1868" />
    <path
       d="m 191.99035,114.77818 v 3.98253 q -1.68379,-0.7028 -3.25045,-1.0542 -1.56666,-0.3514 -2.95761,-0.3514 -1.49345,0 -2.22553,0.38068 -0.71745,0.36605 -0.71745,1.14205 0,0.62959 0.54175,0.96635 0.55638,0.33676 1.97662,0.49782 l 0.92242,0.13177 q 4.02646,0.51246 5.41741,1.68379 1.39096,1.17134 1.39096,3.67506 0,2.62085 -1.9327,3.9386 -1.9327,1.31775 -5.76881,1.31775 -1.62522,0 -3.36758,-0.26355 -1.72771,-0.24891 -3.55792,-0.76137 v -3.98252 q 1.56666,0.76136 3.20652,1.14204 1.65451,0.38069 3.35294,0.38069 1.53737,0 2.31338,-0.42461 0.77601,-0.42461 0.77601,-1.25918 0,-0.7028 -0.54174,-1.03956 -0.5271,-0.3514 -2.12304,-0.54174 l -0.92243,-0.11713 q -3.49935,-0.43925 -4.90495,-1.62523 -1.4056,-1.18597 -1.4056,-3.60184 0,-2.60622 1.78628,-3.8654 1.78629,-1.25918 5.47598,-1.25918 1.44953,0 3.04547,0.21962 1.59593,0.21963 3.47007,0.68816 z"
       style="font-style:normal;font-variant:normal;font-weight:bold;font-stretch:normal;font-size:29.9861px;line-height:0.85;font-family:sans-serif;-inkscape-font-specification:'sans-serif Bold';letter-spacing:-0.187854px;word-spacing:0.703792px;fill:#ffffff;fill-opacity:1;stroke:none;stroke-width:0.264583"
       id="path1870" />
    <text
       xml:space="preserve"
       id="text867"
       style="font-style:normal;font-weight:normal;font-size:10.5833px;line-height:1.25;font-family:sans-serif;letter-spacing:0px;word-spacing:0px;white-space:pre;shape-inside:url(#rect869);fill:#ffffff;fill-opacity:1;stroke:none;"
       transform="translate(-0.16521199,55.009177)" />
    <text
       xml:space="preserve"
       id="text873"
       style="font-style:normal;font-weight:normal;font-size:10.5833px;line-height:1.25;font-family:sans-serif;letter-spacing:0px;word-spacing:0px;white-space:pre;shape-inside:url(#rect875);fill:#ffffff;fill-opacity:1;stroke:none;"
       transform="translate(-0.16521199,55.009177)" />
    <text
       xml:space="preserve"
       id="text879"
       style="font-style:normal;font-weight:normal;font-size:10.5833px;line-height:1.25;font-family:sans-serif;letter-spacing:0px;word-spacing:0px;white-space:pre;shape-inside:url(#rect881);fill:#ffffff;fill-opacity:1;stroke:none;"
       transform="translate(-0.16521199,55.009177)" />
    <text
       xml:space="preserve"
       id="text885"
       style="font-style:normal;font-weight:normal;font-size:10.5833px;line-height:1.25;font-family:sans-serif;letter-spacing:0px;word-spacing:0px;white-space:pre;shape-inside:url(#rect887);fill:#ffffff;fill-opacity:1;stroke:none;"
       transform="translate(-0.16521199,55.009177)" />
    <text
       xml:space="preserve"
       id="text891"
       style="font-style:normal;font-weight:normal;font-size:10.5833px;line-height:1.25;font-family:sans-serif;letter-spacing:0px;word-spacing:0px;white-space:pre;shape-inside:url(#rect893);fill:#ffffff;fill-opacity:1;stroke:none;"
       transform="translate(-0.16521199,55.009177)" />
  </g>
</svg>
